<mxfile host="app.diagrams.net" modified="2022-06-23T08:32:04.142Z" agent="5.0 (Windows NT 10.0; Win64; x64) AppleWebKit/537.36 (KHTML, like Gecko) Chrome/102.0.0.0 Safari/537.36" etag="HovkCB2yyRLWOpjAdZTZ" version="20.0.3" type="github">
  <diagram id="J_Oy26uCBhrr3nIOUFZE" name="Page-1">
    <mxGraphModel dx="1185" dy="628" grid="0" gridSize="10" guides="1" tooltips="1" connect="1" arrows="1" fold="1" page="1" pageScale="1" pageWidth="850" pageHeight="1100" background="#ffffff" math="0" shadow="1">
      <root>
        <mxCell id="0" />
        <mxCell id="1" parent="0" />
        <mxCell id="-_PdDcoECg7CsSAnYV7m-36" style="edgeStyle=orthogonalEdgeStyle;curved=1;rounded=1;sketch=1;orthogonalLoop=1;jettySize=auto;html=1;noEdgeStyle=1;orthogonal=1;" edge="1" parent="1" source="-_PdDcoECg7CsSAnYV7m-1" target="-_PdDcoECg7CsSAnYV7m-26">
          <mxGeometry relative="1" as="geometry">
            <Array as="points">
              <mxPoint x="210" y="272" />
              <mxPoint x="339" y="346" />
            </Array>
          </mxGeometry>
        </mxCell>
        <mxCell id="-_PdDcoECg7CsSAnYV7m-1" value="Product" style="ellipse;whiteSpace=wrap;html=1;sketch=1;rounded=1;" vertex="1" parent="1">
          <mxGeometry x="150" y="180" width="120" height="80" as="geometry" />
        </mxCell>
        <mxCell id="-_PdDcoECg7CsSAnYV7m-19" value="hasMany" style="edgeStyle=orthogonalEdgeStyle;rounded=1;orthogonalLoop=1;jettySize=auto;html=1;entryDx=0;entryDy=0;noEdgeStyle=1;orthogonal=1;sketch=1;curved=1;" edge="1" parent="1" source="-_PdDcoECg7CsSAnYV7m-2" target="-_PdDcoECg7CsSAnYV7m-9">
          <mxGeometry relative="1" as="geometry">
            <Array as="points">
              <mxPoint x="316" y="92" />
              <mxPoint x="60" y="168" />
            </Array>
          </mxGeometry>
        </mxCell>
        <mxCell id="-_PdDcoECg7CsSAnYV7m-20" value="hasMany" style="edgeStyle=orthogonalEdgeStyle;rounded=1;orthogonalLoop=1;jettySize=auto;html=1;noEdgeStyle=1;orthogonal=1;sketch=1;curved=1;" edge="1" parent="1" source="-_PdDcoECg7CsSAnYV7m-2" target="-_PdDcoECg7CsSAnYV7m-1">
          <mxGeometry relative="1" as="geometry">
            <Array as="points">
              <mxPoint x="338" y="94" />
              <mxPoint x="210" y="168" />
            </Array>
          </mxGeometry>
        </mxCell>
        <mxCell id="-_PdDcoECg7CsSAnYV7m-21" value="hasMany" style="edgeStyle=orthogonalEdgeStyle;rounded=1;orthogonalLoop=1;jettySize=auto;html=1;noEdgeStyle=1;orthogonal=1;sketch=1;curved=1;" edge="1" parent="1" source="-_PdDcoECg7CsSAnYV7m-2" target="-_PdDcoECg7CsSAnYV7m-11">
          <mxGeometry relative="1" as="geometry">
            <Array as="points">
              <mxPoint x="360" y="96" />
              <mxPoint x="360" y="168" />
            </Array>
          </mxGeometry>
        </mxCell>
        <mxCell id="-_PdDcoECg7CsSAnYV7m-24" value="hasMany" style="edgeStyle=orthogonalEdgeStyle;rounded=1;orthogonalLoop=1;jettySize=auto;html=1;noEdgeStyle=1;orthogonal=1;sketch=1;curved=1;" edge="1" parent="1" source="-_PdDcoECg7CsSAnYV7m-2" target="-_PdDcoECg7CsSAnYV7m-22">
          <mxGeometry relative="1" as="geometry">
            <Array as="points">
              <mxPoint x="382" y="94" />
              <mxPoint x="510" y="168" />
            </Array>
          </mxGeometry>
        </mxCell>
        <mxCell id="-_PdDcoECg7CsSAnYV7m-25" value="hasMany" style="edgeStyle=orthogonalEdgeStyle;rounded=1;orthogonalLoop=1;jettySize=auto;html=1;noEdgeStyle=1;orthogonal=1;sketch=1;curved=1;" edge="1" parent="1" source="-_PdDcoECg7CsSAnYV7m-2" target="-_PdDcoECg7CsSAnYV7m-23">
          <mxGeometry relative="1" as="geometry">
            <Array as="points">
              <mxPoint x="404" y="92" />
              <mxPoint x="660" y="168" />
            </Array>
          </mxGeometry>
        </mxCell>
        <mxCell id="-_PdDcoECg7CsSAnYV7m-2" value="User" style="ellipse;whiteSpace=wrap;html=1;sketch=1;rounded=1;" vertex="1" parent="1">
          <mxGeometry x="300" width="120" height="80" as="geometry" />
        </mxCell>
        <mxCell id="-_PdDcoECg7CsSAnYV7m-27" value="belongsTo" style="edgeStyle=orthogonalEdgeStyle;rounded=1;orthogonalLoop=1;jettySize=auto;html=1;noEdgeStyle=1;orthogonal=1;sketch=1;curved=1;" edge="1" parent="1" source="-_PdDcoECg7CsSAnYV7m-9" target="-_PdDcoECg7CsSAnYV7m-26">
          <mxGeometry relative="1" as="geometry">
            <Array as="points">
              <mxPoint x="60" y="272" />
              <mxPoint x="318" y="348" />
            </Array>
          </mxGeometry>
        </mxCell>
        <mxCell id="-_PdDcoECg7CsSAnYV7m-9" value="Market" style="ellipse;whiteSpace=wrap;html=1;sketch=1;rounded=1;" vertex="1" parent="1">
          <mxGeometry y="180" width="120" height="80" as="geometry" />
        </mxCell>
        <mxCell id="-_PdDcoECg7CsSAnYV7m-35" style="edgeStyle=orthogonalEdgeStyle;curved=1;rounded=1;sketch=1;orthogonalLoop=1;jettySize=auto;html=1;noEdgeStyle=1;orthogonal=1;" edge="1" parent="1" source="-_PdDcoECg7CsSAnYV7m-11" target="-_PdDcoECg7CsSAnYV7m-26">
          <mxGeometry relative="1" as="geometry">
            <Array as="points">
              <mxPoint x="360" y="272" />
              <mxPoint x="360" y="344" />
            </Array>
          </mxGeometry>
        </mxCell>
        <mxCell id="-_PdDcoECg7CsSAnYV7m-11" value="Review" style="ellipse;whiteSpace=wrap;html=1;sketch=1;rounded=1;" vertex="1" parent="1">
          <mxGeometry x="300" y="180" width="120" height="80" as="geometry" />
        </mxCell>
        <mxCell id="-_PdDcoECg7CsSAnYV7m-33" value="belongsTo" style="edgeStyle=orthogonalEdgeStyle;curved=1;rounded=1;sketch=1;orthogonalLoop=1;jettySize=auto;html=1;noEdgeStyle=1;orthogonal=1;" edge="1" parent="1" source="-_PdDcoECg7CsSAnYV7m-22" target="-_PdDcoECg7CsSAnYV7m-26">
          <mxGeometry relative="1" as="geometry">
            <Array as="points">
              <mxPoint x="510" y="272" />
              <mxPoint x="381" y="346" />
            </Array>
          </mxGeometry>
        </mxCell>
        <mxCell id="-_PdDcoECg7CsSAnYV7m-22" value="Image" style="ellipse;whiteSpace=wrap;html=1;sketch=1;rounded=1;" vertex="1" parent="1">
          <mxGeometry x="450" y="180" width="120" height="80" as="geometry" />
        </mxCell>
        <mxCell id="-_PdDcoECg7CsSAnYV7m-34" style="edgeStyle=orthogonalEdgeStyle;curved=1;rounded=1;sketch=1;orthogonalLoop=1;jettySize=auto;html=1;noEdgeStyle=1;orthogonal=1;" edge="1" parent="1" source="-_PdDcoECg7CsSAnYV7m-23" target="-_PdDcoECg7CsSAnYV7m-26">
          <mxGeometry relative="1" as="geometry">
            <Array as="points">
              <mxPoint x="660" y="272" />
              <mxPoint x="402" y="348" />
            </Array>
          </mxGeometry>
        </mxCell>
        <mxCell id="-_PdDcoECg7CsSAnYV7m-23" value="Avatar" style="ellipse;whiteSpace=wrap;html=1;sketch=1;rounded=1;" vertex="1" parent="1">
          <mxGeometry x="600" y="180" width="120" height="80" as="geometry" />
        </mxCell>
        <mxCell id="-_PdDcoECg7CsSAnYV7m-26" value="User" style="ellipse;whiteSpace=wrap;html=1;sketch=1;rounded=1;" vertex="1" parent="1">
          <mxGeometry x="302.5" y="360" width="115" height="85" as="geometry" />
        </mxCell>
      </root>
    </mxGraphModel>
  </diagram>
</mxfile>
